<svg width="42" height="43" viewBox="0 0 42 43" fill="none" xmlns="http://www.w3.org/2000/svg">
<rect y="0.799805" width="42" height="42" rx="16" fill="#303F9F"/>
<path fill-rule="evenodd" clip-rule="evenodd" d="M28.3816 22.7168H13.6184C13.1408 22.7168 12.75 23.1293 12.75 23.6335V29.1335C12.75 29.6376 13.1408 30.0501 13.6184 30.0501H28.3816C28.8592 30.0501 29.25 29.6376 29.25 29.1335V23.6335C29.25 23.1293 28.8592 22.7168 28.3816 22.7168ZM28.3816 14.4668H13.6184C13.1408 14.4668 12.75 14.8793 12.75 15.3835V20.8835C12.75 21.3876 13.1408 21.8001 13.6184 21.8001H28.3816C28.8592 21.8001 29.25 21.3876 29.25 20.8835V15.3835C29.25 14.8793 28.8592 14.4668 28.3816 14.4668Z" fill="white"/>
</svg>
