<svg width="42" height="43" viewBox="0 0 42 43" fill="none" xmlns="http://www.w3.org/2000/svg">
<rect y="0.799805" width="42" height="42" rx="4" fill="#FFB41F"/>
<path fill-rule="evenodd" clip-rule="evenodd" d="M16.9479 14.5401L15.637 13.2293C13.437 14.9068 11.9887 17.4918 11.8604 20.4251H13.6937C13.8312 17.996 15.0779 15.8693 16.9479 14.5401ZM28.3053 20.4251H30.1387C30.0012 17.4918 28.5529 14.9068 26.362 13.2293L25.0604 14.5401C26.912 15.8693 28.1679 17.996 28.3053 20.4251ZM26.4995 20.8835C26.4995 18.0693 24.9962 15.7135 22.3745 15.0901V14.4668C22.3745 13.706 21.7604 13.0918 20.9995 13.0918C20.2387 13.0918 19.6245 13.706 19.6245 14.4668V15.0901C16.9937 15.7135 15.4995 18.0601 15.4995 20.8835V25.4668L13.6662 27.3001V28.2168H28.3328V27.3001L26.4995 25.4668V20.8835ZM20.9995 30.9668C21.1279 30.9668 21.247 30.9576 21.3662 30.9301C21.962 30.8018 22.4479 30.3985 22.6862 29.8485C22.7779 29.6285 22.8237 29.3901 22.8237 29.1335H19.157C19.1662 30.1418 19.982 30.9668 20.9995 30.9668Z" fill="white"/>
</svg>
