<svg width="42" height="43" viewBox="0 0 42 43" fill="none" xmlns="http://www.w3.org/2000/svg">
<rect y="0.799805" width="42" height="42" rx="21" fill="#00A9FF"/>
<path fill-rule="evenodd" clip-rule="evenodd" d="M28.3973 12.6328L26.9032 14.127C29.4423 16.8953 29.4423 21.057 26.9032 23.972L28.3973 25.4661C31.9723 21.9003 31.9815 16.3453 28.3973 12.6328ZM23.8232 17.262L25.3632 15.7128C27.2148 17.7295 27.2148 20.5253 25.3632 22.377L23.8232 20.8278C24.5932 19.7461 24.5932 18.3436 23.8232 17.262ZM10.9165 28.2161C10.9165 25.7778 15.8023 24.5495 18.2498 24.5495C20.6973 24.5495 25.5832 25.7778 25.5832 28.2161V30.0495H10.9165V28.2161ZM18.2498 22.7161C20.2748 22.7161 21.9165 21.0745 21.9165 19.0495C21.9165 17.0244 20.2748 15.3828 18.2498 15.3828C16.2248 15.3828 14.5832 17.0244 14.5832 19.0495C14.5832 21.0745 16.2248 22.7161 18.2498 22.7161Z" fill="white"/>
</svg>
