<svg width="42" height="43" viewBox="0 0 42 43" fill="none" xmlns="http://www.w3.org/2000/svg">
<rect y="0.799805" width="42" height="42" rx="4" fill="#FFB41F"/>
<path fill-rule="evenodd" clip-rule="evenodd" d="M20.991 12.6328C15.931 12.6328 11.8335 16.7395 11.8335 21.7995C11.8335 26.8595 15.931 30.9661 20.991 30.9661C26.0602 30.9661 30.1668 26.8595 30.1668 21.7995C30.1668 16.7395 26.0602 12.6328 20.991 12.6328ZM27.3435 18.1328H24.6393C24.346 16.987 23.9243 15.887 23.3743 14.8695C25.061 15.447 26.4635 16.6203 27.3435 18.1328ZM21.0002 14.5028C21.761 15.6028 22.3568 16.822 22.751 18.1328H19.2493C19.6435 16.822 20.2393 15.6028 21.0002 14.5028ZM13.9052 23.6328C13.7585 23.0461 13.6668 22.432 13.6668 21.7995C13.6668 21.167 13.7585 20.5528 13.9052 19.9661H17.0035C16.9302 20.5711 16.8752 21.1761 16.8752 21.7995C16.8752 22.4228 16.9302 23.0278 17.0035 23.6328H13.9052ZM14.6568 25.4661H17.361C17.6543 26.612 18.076 27.712 18.626 28.7295C16.9393 28.152 15.5368 26.9878 14.6568 25.4661ZM17.361 18.1328H14.6568C15.5368 16.6111 16.9393 15.447 18.626 14.8695C18.076 15.887 17.6543 16.987 17.361 18.1328ZM21.0002 29.0961C20.2393 27.9961 19.6435 26.777 19.2493 25.4661H22.751C22.3568 26.777 21.761 27.9961 21.0002 29.0961ZM23.1452 23.6328H18.8552C18.7727 23.0278 18.7085 22.4228 18.7085 21.7995C18.7085 21.1761 18.7727 20.562 18.8552 19.9661H23.1452C23.2277 20.562 23.2918 21.1761 23.2918 21.7995C23.2918 22.4228 23.2277 23.0278 23.1452 23.6328ZM23.3743 28.7295C23.9243 27.712 24.346 26.612 24.6393 25.4661H27.3435C26.4635 26.9786 25.061 28.152 23.3743 28.7295ZM24.9968 23.6328C25.0702 23.0278 25.1252 22.4228 25.1252 21.7995C25.1252 21.1761 25.0702 20.5711 24.9968 19.9661H28.0952C28.2418 20.5528 28.3335 21.167 28.3335 21.7995C28.3335 22.432 28.2418 23.0461 28.0952 23.6328H24.9968Z" fill="white"/>
</svg>
