<svg width="42" height="43" viewBox="0 0 42 43" fill="none" xmlns="http://www.w3.org/2000/svg">
<rect y="0.799805" width="42" height="42" rx="21" fill="#00A9FF"/>
<path fill-rule="evenodd" clip-rule="evenodd" d="M13.5752 21.8001C13.5752 20.2326 14.8493 18.9585 16.4168 18.9585H20.0835V17.2168H16.4168C13.8868 17.2168 11.8335 19.2701 11.8335 21.8001C11.8335 24.3301 13.8868 26.3835 16.4168 26.3835H20.0835V24.6418H16.4168C14.8493 24.6418 13.5752 23.3676 13.5752 21.8001ZM17.3335 22.7168H24.6668V20.8835H17.3335V22.7168ZM25.5835 17.2168H21.9168V18.9585H25.5835C27.151 18.9585 28.4252 20.2326 28.4252 21.8001C28.4252 23.3676 27.151 24.6418 25.5835 24.6418H21.9168V26.3835H25.5835C28.1135 26.3835 30.1668 24.3301 30.1668 21.8001C30.1668 19.2701 28.1135 17.2168 25.5835 17.2168Z" fill="white"/>
</svg>
