<svg width="62" height="65" viewBox="0 0 62 65" fill="none" xmlns="http://www.w3.org/2000/svg">
<g filter="url(#filter0_ddd_2_27268)">
<rect x="7" y="0.5" width="48" height="48" rx="12" fill="#0099FF"/>
<g clip-path="url(#clip0_2_27268)">
<path d="M41.3126 15.125H20.6876C20.1903 15.125 19.7134 15.3225 19.3618 15.6742C19.0101 16.0258 18.8126 16.5027 18.8126 17V35.6094C18.8089 35.968 18.91 36.3199 19.1037 36.6218C19.2973 36.9237 19.5749 37.1624 19.9024 37.3086C20.2248 37.459 20.5832 37.5146 20.936 37.469C21.2887 37.4233 21.6212 37.2783 21.8946 37.0508L25.6095 33.9219L41.3126 33.875C41.8099 33.875 42.2868 33.6775 42.6384 33.3258C42.9901 32.9742 43.1876 32.4973 43.1876 32V17C43.1876 16.5027 42.9901 16.0258 42.6384 15.6742C42.2868 15.3225 41.8099 15.125 41.3126 15.125Z" fill="white"/>
</g>
</g>
<defs>
<filter id="filter0_ddd_2_27268" x="0.75" y="0.5" width="60.5" height="64.25" filterUnits="userSpaceOnUse" color-interpolation-filters="sRGB">
<feFlood flood-opacity="0" result="BackgroundImageFix"/>
<feColorMatrix in="SourceAlpha" type="matrix" values="0 0 0 0 0 0 0 0 0 0 0 0 0 0 0 0 0 0 127 0" result="hardAlpha"/>
<feMorphology radius="3.75" operator="erode" in="SourceAlpha" result="effect1_dropShadow_2_27268"/>
<feOffset dy="10"/>
<feGaussianBlur stdDeviation="5"/>
<feComposite in2="hardAlpha" operator="out"/>
<feColorMatrix type="matrix" values="0 0 0 0 0 0 0 0 0 0 0 0 0 0 0 0 0 0 0.075 0"/>
<feBlend mode="normal" in2="BackgroundImageFix" result="effect1_dropShadow_2_27268"/>
<feColorMatrix in="SourceAlpha" type="matrix" values="0 0 0 0 0 0 0 0 0 0 0 0 0 0 0 0 0 0 127 0" result="hardAlpha"/>
<feMorphology radius="2.5" operator="erode" in="SourceAlpha" result="effect2_dropShadow_2_27268"/>
<feOffset dy="2.29021"/>
<feGaussianBlur stdDeviation="1.14511"/>
<feComposite in2="hardAlpha" operator="out"/>
<feColorMatrix type="matrix" values="0 0 0 0 0 0 0 0 0 0 0 0 0 0 0 0 0 0 0.192 0"/>
<feBlend mode="normal" in2="effect1_dropShadow_2_27268" result="effect2_dropShadow_2_27268"/>
<feColorMatrix in="SourceAlpha" type="matrix" values="0 0 0 0 0 0 0 0 0 0 0 0 0 0 0 0 0 0 127 0" result="hardAlpha"/>
<feMorphology radius="1.25" operator="erode" in="SourceAlpha" result="effect3_dropShadow_2_27268"/>
<feOffset dy="0.60323"/>
<feGaussianBlur stdDeviation="0.301615"/>
<feComposite in2="hardAlpha" operator="out"/>
<feColorMatrix type="matrix" values="0 0 0 0 0 0 0 0 0 0 0 0 0 0 0 0 0 0 0.216 0"/>
<feBlend mode="normal" in2="effect2_dropShadow_2_27268" result="effect3_dropShadow_2_27268"/>
<feBlend mode="normal" in="SourceGraphic" in2="effect3_dropShadow_2_27268" result="shape"/>
</filter>
<clipPath id="clip0_2_27268">
<rect width="30" height="30" fill="white" transform="translate(16 9.5)"/>
</clipPath>
</defs>
</svg>
