<svg width="24" height="25" viewBox="0 0 24 25" fill="none" xmlns="http://www.w3.org/2000/svg">
<path d="M12.001 4.9375C7.582 4.9375 4 8.5195 4 12.9365C4 16.2135 5.97 19.0275 8.789 20.2645C8.765 19.7055 8.784 19.0355 8.927 18.4285C9.082 17.7785 9.957 14.0685 9.957 14.0685C9.957 14.0685 9.702 13.5575 9.702 12.8025C9.702 11.6165 10.389 10.7315 11.244 10.7315C11.973 10.7315 12.323 11.2785 12.323 11.9325C12.323 12.6635 11.857 13.7585 11.618 14.7715C11.417 15.6205 12.043 16.3125 12.879 16.3125C14.396 16.3125 15.417 14.3655 15.417 12.0595C15.417 10.3065 14.236 8.9935 12.088 8.9935C9.661 8.9935 8.15 10.8035 8.15 12.8245C8.15 13.5215 8.354 14.0135 8.677 14.3935C8.824 14.5685 8.845 14.6395 8.791 14.8395C8.753 14.9865 8.665 15.3415 8.628 15.4815C8.575 15.6845 8.411 15.7565 8.228 15.6825C7.11 15.2255 6.59 14.0025 6.59 12.6255C6.59 10.3535 8.507 7.6285 12.307 7.6285C15.362 7.6285 17.373 9.8385 17.373 12.2105C17.373 15.3495 15.627 17.6945 13.055 17.6945C12.191 17.6945 11.379 17.2265 11.101 16.6965C11.101 16.6965 10.636 18.5405 10.538 18.8955C10.368 19.5115 10.036 20.1295 9.733 20.6095C10.469 20.8275 11.233 20.9375 12.001 20.9375C16.419 20.9375 20 17.3555 20 12.9365C20 8.5195 16.419 4.9375 12.001 4.9375Z" fill="white"/>
</svg>
