<svg width="24" height="25" viewBox="0 0 24 25" fill="none" xmlns="http://www.w3.org/2000/svg">
<path d="M11.5264 20.4619C7.11437 20.4619 3.52637 16.8769 3.52637 12.4649C3.52637 8.04791 7.11437 4.46191 11.5264 4.46191C15.9394 4.46191 19.5264 8.04791 19.5264 12.4589C19.5264 16.8709 15.9394 20.4619 11.5264 20.4619ZM18.2704 13.5539C18.0394 13.4789 16.1584 12.9219 14.0144 13.2599C14.9084 15.7129 15.2704 17.7149 15.3394 18.1279C16.8764 17.0959 17.9704 15.4559 18.2704 13.5539ZM14.1954 18.7599C14.0954 18.1599 13.6954 16.0699 12.7394 13.5789C12.7264 13.5859 12.7084 13.5919 12.6954 13.5919C8.83937 14.9369 7.45837 17.6089 7.33337 17.8589C8.48937 18.7599 9.94537 19.2979 11.5264 19.2979C12.4704 19.3049 13.3764 19.1109 14.1954 18.7599ZM6.45137 17.0399C6.60837 16.7769 8.48337 13.6729 12.0084 12.5279C12.0954 12.4969 12.1894 12.4719 12.2764 12.4469C12.1084 12.0589 11.9204 11.6709 11.7204 11.2889C8.30837 12.3089 4.99537 12.2649 4.69537 12.2589C4.69537 12.3279 4.68937 12.3969 4.68937 12.4649C4.69537 14.2239 5.35837 15.8259 6.45137 17.0399ZM4.83937 11.0699C5.14537 11.0759 7.95837 11.0889 11.1584 10.2379C10.0264 8.22291 8.80137 6.53391 8.62637 6.28891C6.70837 7.19091 5.28337 8.95491 4.83937 11.0699ZM9.92637 5.82591C10.1144 6.07691 11.3584 7.76591 12.4764 9.82491C14.9084 8.91091 15.9334 7.53491 16.0584 7.35891C14.8514 6.28891 13.2644 5.63891 11.5264 5.63891C10.9764 5.63891 10.4394 5.70791 9.92637 5.82591ZM16.8144 8.14791C16.6704 8.34191 15.5264 9.81191 13.0014 10.8449C13.1584 11.1699 13.3144 11.5019 13.4584 11.8329C13.5084 11.9519 13.5584 12.0709 13.6084 12.1839C15.8834 11.8959 18.1394 12.3589 18.3644 12.4029C18.3454 10.7949 17.7704 9.31191 16.8144 8.14791Z" fill="white"/>
</svg>
