<svg width="24" height="25" viewBox="0 0 24 25" fill="none" xmlns="http://www.w3.org/2000/svg">
<path d="M4 9.6045C4 7.0265 6.089 4.9375 8.667 4.9375H15.333C17.911 4.9375 20 7.0265 20 9.6045V16.2705C20 18.8485 17.911 20.9375 15.333 20.9375H8.667C6.089 20.9375 4 18.8485 4 16.2705V9.6045ZM15.333 8.2705C15.322 8.7545 15.574 9.2055 15.991 9.4505C16.408 9.6955 16.924 9.6955 17.341 9.4505C17.758 9.2065 18.01 8.7545 17.999 8.2715C17.983 7.5465 17.391 6.9675 16.667 6.9675C15.942 6.9675 15.35 7.5465 15.333 8.2705ZM8.667 12.9375C8.667 14.7785 10.16 16.2715 12.001 16.2705C13.842 16.2705 15.334 14.7775 15.334 12.9365C15.334 11.0955 13.841 9.6035 12 9.6035C10.159 9.6035 8.666 11.0965 8.667 12.9375Z" fill="white"/>
</svg>
