<svg width="24" height="25" viewBox="0 0 24 25" fill="none" xmlns="http://www.w3.org/2000/svg">
<path d="M23 12.9375C23 12.9375 23 16.4245 22.54 18.0955C22.285 19.0195 21.544 19.7415 20.595 19.9895C18.88 20.4375 12 20.4375 12 20.4375C12 20.4375 5.12 20.4375 3.405 19.9895C2.456 19.7405 1.715 19.0195 1.46 18.0955C1 16.4245 1 12.9375 1 12.9375C1 12.9375 1 9.4505 1.46 7.7795C1.715 6.8555 2.456 6.1345 3.405 5.8855C5.12 5.4375 12 5.4375 12 5.4375C12 5.4375 18.88 5.4375 20.595 5.8855C21.544 6.1345 22.285 6.8555 22.54 7.7795C22.998 9.4505 23 12.9375 23 12.9375ZM9.798 16.1515L15.514 12.9375L9.798 9.7245V16.1515Z" fill="white"/>
</svg>
