<svg width="24" height="25" viewBox="0 0 24 25" fill="none" xmlns="http://www.w3.org/2000/svg">
<path d="M11.5254 20.4619C7.11339 20.4619 3.52539 16.8769 3.52539 12.4649C3.52539 8.04791 7.11339 4.46191 11.5254 4.46191C15.9384 4.46191 19.5254 8.04791 19.5254 12.4589C19.5254 16.8709 15.9384 20.4619 11.5254 20.4619ZM18.2694 13.5539C18.0384 13.4789 16.1574 12.9219 14.0134 13.2599C14.9074 15.7129 15.2694 17.7149 15.3384 18.1279C16.8754 17.0959 17.9694 15.4559 18.2694 13.5539ZM14.1944 18.7599C14.0944 18.1599 13.6944 16.0699 12.7384 13.5789C12.7254 13.5859 12.7074 13.5919 12.6944 13.5919C8.83839 14.9369 7.45739 17.6089 7.33239 17.8589C8.48839 18.7599 9.94439 19.2979 11.5254 19.2979C12.4694 19.3049 13.3754 19.1109 14.1944 18.7599ZM6.45039 17.0399C6.60739 16.7769 8.48239 13.6729 12.0074 12.5279C12.0944 12.4969 12.1884 12.4719 12.2754 12.4469C12.1074 12.0589 11.9194 11.6709 11.7194 11.2889C8.30739 12.3089 4.99439 12.2649 4.69439 12.2589C4.69439 12.3279 4.68839 12.3969 4.68839 12.4649C4.69439 14.2239 5.35739 15.8259 6.45039 17.0399ZM4.83839 11.0699C5.14439 11.0759 7.95739 11.0889 11.1574 10.2379C10.0254 8.22291 8.80039 6.53391 8.62539 6.28891C6.70739 7.19091 5.28239 8.95491 4.83839 11.0699ZM9.92539 5.82591C10.1134 6.07691 11.3574 7.76591 12.4754 9.82491C14.9074 8.91091 15.9324 7.53491 16.0574 7.35891C14.8504 6.28891 13.2634 5.63891 11.5254 5.63891C10.9754 5.63891 10.4384 5.70791 9.92539 5.82591ZM16.8134 8.14791C16.6694 8.34191 15.5254 9.81191 13.0004 10.8449C13.1574 11.1699 13.3134 11.5019 13.4574 11.8329C13.5074 11.9519 13.5574 12.0709 13.6074 12.1839C15.8824 11.8959 18.1384 12.3589 18.3634 12.4029C18.3444 10.7949 17.7694 9.31191 16.8134 8.14791Z" fill="white"/>
</svg>
