<svg width="34" height="34" viewBox="0 0 34 34" fill="none" xmlns="http://www.w3.org/2000/svg">
<g clip-path="url(#clip0_253_1928)">
<path d="M17.2797 12.4109C19.8703 9.89084 24.0218 9.94814 26.5419 12.5388C29.05 15.1172 29.0885 19.1994 26.4857 21.7313C23.895 24.2514 19.7436 24.1941 17.2235 21.6034C16.8537 21.2233 16.5429 20.7948 16.2882 20.3497C15.7917 20.7988 15.0249 20.7774 14.5543 20.2937L13.334 19.0393L12.0796 20.2595C11.5848 20.7409 10.7934 20.73 10.3121 20.2351L9.09181 18.9807L8.19581 19.8523C7.50303 20.5262 6.3951 20.5109 5.72118 19.8181L3.97798 18.0261C3.30406 17.3334 3.31936 16.2254 4.01214 15.5515L5.56875 14.0373C6.09151 13.5288 6.79493 13.2487 7.52419 13.2588L16.3421 13.3805C16.4191 13.3816 16.505 13.3435 16.5653 13.2599C16.7696 12.9771 17.0021 12.6809 17.2797 12.4109ZM24.9113 17.9616C25.4061 17.4802 25.417 16.6888 24.9357 16.194C24.4543 15.6991 23.6629 15.6882 23.1681 16.1696C22.6732 16.651 22.6623 17.4423 23.1437 17.9372C23.625 18.432 24.4164 18.443 24.9113 17.9616Z" fill="#ABB1BB"/>
</g>
<defs>
<clipPath id="clip0_253_1928">
<rect width="24" height="24" fill="white" transform="translate(17.2031) rotate(45.7909)"/>
</clipPath>
</defs>
</svg>
