<svg width="34" height="34" viewBox="0 0 34 34" fill="none" xmlns="http://www.w3.org/2000/svg">
<g clip-path="url(#clip0_253_1935)">
<path d="M17.2816 12.4109C19.8723 9.89084 24.0237 9.94814 26.5438 12.5388C29.052 15.1172 29.0904 19.1994 26.4876 21.7313C23.897 24.2514 19.7455 24.1941 17.2254 21.6034C16.8556 21.2233 16.5449 20.7948 16.2902 20.3497C15.7937 20.7988 15.0268 20.7774 14.5562 20.2937L13.336 19.0393L12.0816 20.2595C11.5867 20.7409 10.7954 20.73 10.314 20.2351L9.09377 18.9807L8.19777 19.8523C7.50498 20.5262 6.39705 20.5109 5.72313 19.8181L3.97993 18.0261C3.30601 17.3334 3.32131 16.2254 4.0141 15.5515L5.5707 14.0373C6.09346 13.5288 6.79689 13.2487 7.52614 13.2588L16.344 13.3805C16.4211 13.3816 16.507 13.3435 16.5673 13.2599C16.7716 12.9771 17.0041 12.6809 17.2816 12.4109ZM24.9132 17.9616C25.4081 17.4802 25.419 16.6888 24.9376 16.194C24.4562 15.6991 23.6649 15.6882 23.17 16.1696C22.6752 16.651 22.6642 17.4423 23.1456 17.9372C23.627 18.432 24.4184 18.443 24.9132 17.9616Z" fill="#ABB1BB"/>
</g>
<defs>
<clipPath id="clip0_253_1935">
<rect width="24" height="24" fill="white" transform="translate(17.2051) rotate(45.7909)"/>
</clipPath>
</defs>
</svg>
