<svg width="28" height="28" viewBox="0 0 28 28" fill="none" xmlns="http://www.w3.org/2000/svg">
<path d="M18.375 2.33301C19.8247 2.33301 21 3.50826 21 4.95801V23.0413C21 24.491 19.8247 25.6663 18.375 25.6663H9.625C8.17525 25.6663 7 24.491 7 23.0413V4.95801C7 3.50826 8.17525 2.33301 9.625 2.33301H18.375ZM15.4583 20.9997H12.5417C12.0584 20.9997 11.6667 21.3914 11.6667 21.8747C11.6667 22.3579 12.0584 22.7497 12.5417 22.7497H15.4583C15.9416 22.7497 16.3333 22.3579 16.3333 21.8747C16.3333 21.3914 15.9416 20.9997 15.4583 20.9997Z" fill="#ABB1BB"/>
</svg>
