<svg width="946" height="608" viewBox="0 0 946 608" fill="none" xmlns="http://www.w3.org/2000/svg">
<path d="M8.99946 139.126C8.99946 139.624 9.18894 140.102 9.52622 140.455C9.86349 140.807 10.3209 141.005 10.7979 141.005C11.2749 141.005 11.7323 140.807 12.0696 140.455C12.4069 140.102 12.5964 139.624 12.5964 139.126H8.99946ZM10.7979 481.526L0.414551 500.32H21.1813L10.7979 481.526ZM12.5964 139.126V117.465H8.99946V139.126H12.5964ZM740.316 561.954H55.7592V565.712H740.316V561.954ZM12.5964 516.847V498.441H8.99946V516.847H12.5964ZM942.396 117.465V409.095H945.993V117.465H942.396ZM942.396 409.095V516.847H945.993V409.095H942.396ZM899.233 561.954H740.316V565.712H899.233V561.954ZM55.7592 72.3585H625.376V68.5996H55.7592V72.3585ZM749.451 72.3585H899.233V68.5996H749.451V72.3585ZM672.136 121.224H702.691V117.465H672.136V121.224ZM702.691 121.224C716.597 121.224 727.87 109.444 727.87 94.9118H724.273C724.273 107.368 714.61 117.465 702.691 117.465V121.224ZM646.957 94.9118C646.957 109.444 658.23 121.224 672.136 121.224V117.465C660.216 117.465 650.554 107.368 650.554 94.9118H646.957ZM749.451 68.5996C735.545 68.5996 724.273 80.38 724.273 94.9118H727.87C727.87 82.4558 737.532 72.3585 749.451 72.3585V68.5996ZM625.376 72.3585C637.295 72.3585 646.957 82.4558 646.957 94.9118H650.554C650.554 80.38 639.281 68.5996 625.376 68.5996V72.3585ZM55.7592 561.954C31.9207 561.954 12.5964 541.759 12.5964 516.847H8.99946C8.99946 543.835 29.9343 565.712 55.7592 565.712V561.954ZM942.396 516.847C942.396 541.759 923.072 561.954 899.233 561.954V565.712C925.059 565.712 945.993 543.835 945.993 516.847H942.396ZM945.993 117.465C945.993 90.4773 925.059 68.5996 899.233 68.5996V72.3585C923.072 72.3585 942.396 92.5531 942.396 117.465H945.993ZM12.5964 117.465C12.5964 92.5531 31.9207 72.3585 55.7592 72.3585V68.5996C29.9343 68.5996 8.99946 90.4773 8.99946 117.465H12.5964Z" fill="#2C3A55"/>
<path d="M213.424 101.783L217.597 35.1523C217.612 34.9206 217.684 34.6969 217.806 34.5032C217.929 34.3095 218.097 34.1524 218.296 34.0474C218.494 33.9424 218.715 33.8932 218.937 33.9045C219.159 33.9159 219.374 33.9874 219.561 34.112L239.631 47.4552C240.212 47.8415 240.862 48.1013 241.542 48.2189C242.221 48.3365 242.916 48.3095 243.586 48.1395C244.255 47.9696 244.885 47.6601 245.437 47.2297C245.989 46.7994 246.452 46.2569 246.799 45.6349L266.72 9.90669C267.265 8.93032 268.652 9.05719 269.026 10.1181L281.076 44.2874C282.197 47.4636 285.823 48.767 288.576 46.9815L312.175 31.6735C313.121 31.0608 314.314 31.915 314.107 33.0577L301.457 103.124C301.236 104.349 300.613 105.454 299.695 106.25C298.777 107.045 297.621 107.48 296.429 107.48H218.53C217.83 107.48 217.137 107.33 216.495 107.039C215.852 106.748 215.274 106.322 214.795 105.788C214.317 105.254 213.948 104.623 213.712 103.934C213.476 103.245 213.378 102.513 213.424 101.783ZM770.19 97.8036L775.54 20.8056C775.672 18.9111 776.485 17.1389 777.816 15.8454C779.147 14.5519 780.897 13.8328 782.715 13.8329H860.332C861.297 13.8329 862.252 14.036 863.141 14.4299C864.03 14.8239 864.833 15.4007 865.504 16.126C866.175 16.8514 866.699 17.7103 867.046 18.6518C867.392 19.5933 867.554 20.5981 867.521 21.6062L865.004 98.6052C864.94 100.553 864.155 102.4 862.814 103.754C861.473 105.109 859.68 105.866 857.815 105.866H777.365C773.187 105.866 769.888 102.159 770.19 97.8036Z" fill="white" stroke="#2C3A55" stroke-width="4.60404" stroke-miterlimit="10"/>
<path d="M865.839 44.4902H836.391C834.925 44.4902 833.495 44.9577 832.291 45.8303L823.228 52.3991C819.419 55.16 819.066 60.9093 822.506 64.1561L832.312 73.4126C833.497 74.5313 835.005 75.2061 836.597 75.3306L865.839 77.6151" stroke="#2C3A55" stroke-width="4.60404" stroke-miterlimit="10"/>
<path d="M835.879 61.0521C835.879 59.6863 836.398 58.3764 837.322 57.4107C838.246 56.4449 839.5 55.9023 840.807 55.9023C842.114 55.9023 843.367 56.4449 844.291 57.4107C845.215 58.3764 845.734 59.6863 845.734 61.0521C845.734 62.4179 845.215 63.7278 844.291 64.6935C843.367 65.6593 842.114 66.2019 840.807 66.2019C839.5 66.2019 838.246 65.6593 837.322 64.6935C836.398 63.7278 835.879 62.4179 835.879 61.0521Z" fill="#2C3A55"/>
<mask id="mask0_211_1240" style="mask-type:luminance" maskUnits="userSpaceOnUse" x="649" y="487" width="116" height="121">
<path fill-rule="evenodd" clip-rule="evenodd" d="M649.249 487.716H764.349V608H649.249V487.716Z" fill="white"/>
</mask>
<g mask="url(#mask0_211_1240)">
<path d="M677.22 520.755C651.285 569.877 670.235 595.197 693.552 597.871C746.633 603.96 755.937 556.036 749.339 529.237C749.002 527.874 747.389 527.471 746.44 528.471L733.845 541.738C729.3 546.526 721.489 543.122 721.544 536.378L721.888 495.013C721.904 493.139 719.573 492.398 718.588 493.963L695.482 530.657C692.18 535.899 684.545 534.856 682.629 528.908C681.648 525.865 680.737 523.048 680.061 520.984C679.591 519.551 677.92 519.428 677.22 520.755Z" fill="white" stroke="#2C3A55" stroke-width="4.60404" stroke-miterlimit="10"/>
</g>
</svg>
